<svg width="600" height="600" viewBox="0 0 600 600" fill="none" xmlns="http://www.w3.org/2000/svg">
<path d="M194.627 272.168V300H185.252V228.906H211.473C219.253 228.906 225.34 230.892 229.734 234.863C234.161 238.835 236.375 244.092 236.375 250.635C236.375 257.536 234.21 262.858 229.881 266.602C225.584 270.312 219.415 272.168 211.375 272.168H194.627ZM194.627 264.502H211.473C216.486 264.502 220.327 263.33 222.996 260.986C225.665 258.61 227 255.192 227 250.732C227 246.501 225.665 243.115 222.996 240.576C220.327 238.037 216.665 236.719 212.01 236.621H194.627V264.502ZM269.48 278.076H255.857V300H246.824V243.115H267.625C274.559 243.115 279.897 244.629 283.641 247.656C287.417 250.684 289.305 254.964 289.305 260.498C289.305 267.92 285.48 273.079 277.83 275.977L291.893 299.512V300H282.225L269.48 278.076ZM255.857 270.703H267.869C271.678 270.703 274.689 269.824 276.902 268.066C279.148 266.276 280.271 263.867 280.271 260.84C280.271 257.585 279.181 255.062 277 253.271C274.819 251.481 271.678 250.586 267.576 250.586H255.857V270.703ZM348.094 273.242C348.094 281.738 345.848 288.46 341.355 293.408C336.863 298.324 330.841 300.781 323.289 300.781C315.835 300.781 309.812 298.291 305.223 293.311C300.665 288.33 298.387 281.559 298.387 272.998V269.971C298.387 261.572 300.649 254.867 305.174 249.854C309.731 244.84 315.737 242.334 323.191 242.334C330.776 242.334 336.798 244.808 341.258 249.756C345.75 254.704 348.029 261.328 348.094 269.629V273.242ZM339.158 269.873C339.158 263.428 337.758 258.496 334.959 255.078C332.16 251.66 328.237 249.951 323.191 249.951C318.309 249.951 314.435 251.693 311.57 255.176C308.738 258.659 307.322 263.607 307.322 270.02V273.242C307.322 279.59 308.755 284.521 311.619 288.037C314.484 291.52 318.374 293.262 323.289 293.262C328.367 293.262 332.273 291.553 335.008 288.135C337.775 284.684 339.158 279.72 339.158 273.242V269.873ZM378.514 273.486H354.686V266.113H378.514V273.486Z" fill="#25A80F"/>
<path d="M233.348 350V293.115H250.975C256.248 293.115 260.919 294.206 264.988 296.387C269.09 298.535 272.28 301.611 274.559 305.615C276.837 309.619 278.025 314.209 278.123 319.385V323.145C278.123 331.348 275.584 337.874 270.506 342.725C265.46 347.575 258.657 350 250.096 350H233.348ZM242.381 300.586V342.627H250.389C256.443 342.627 261.082 340.934 264.305 337.549C267.527 334.163 269.139 329.346 269.139 323.096V319.971C269.139 313.721 267.592 308.936 264.5 305.615C261.44 302.262 256.932 300.586 250.975 300.586H242.381ZM333.348 293.115V331.201C333.348 337.126 331.313 341.878 327.244 345.459C323.175 349.007 317.739 350.781 310.936 350.781C304.1 350.781 298.68 349.072 294.676 345.654C290.672 342.204 288.621 337.516 288.523 331.592V293.115H297.459V331.201C297.459 335.14 298.615 338.167 300.926 340.283C303.27 342.367 306.606 343.408 310.936 343.408C315.2 343.408 318.488 342.383 320.799 340.332C323.143 338.249 324.314 335.205 324.314 331.201V293.115H333.348ZM391.258 331.592C390.607 337.679 388.23 342.399 384.129 345.752C380.027 349.105 374.575 350.781 367.771 350.781C360.48 350.781 354.62 348.389 350.193 343.604C345.799 338.786 343.602 332.161 343.602 323.73V319.141C343.602 313.802 344.594 309.115 346.58 305.078C348.598 301.009 351.479 297.868 355.223 295.654C358.999 293.441 363.361 292.334 368.309 292.334C374.949 292.334 380.271 294.059 384.275 297.51C388.312 300.928 390.639 305.68 391.258 311.768H382.225C381.639 307.536 380.19 304.476 377.879 302.588C375.6 300.7 372.41 299.756 368.309 299.756C363.328 299.756 359.471 301.416 356.736 304.736C354.035 308.024 352.667 312.744 352.635 318.896V324.072C352.635 330.225 353.921 334.993 356.492 338.379C359.096 341.732 362.856 343.408 367.771 343.408C372.166 343.408 375.503 342.513 377.781 340.723C380.092 338.9 381.574 335.856 382.225 331.592H391.258ZM444.822 300.586H425.34V350H416.307V300.586H396.922V293.115H444.822V300.586Z" fill="#077B83"/>
<path d="M194.627 272.168V270.168H192.627V272.168H194.627ZM194.627 300V302H196.627V300H194.627ZM185.252 300H183.252V302H185.252V300ZM185.252 228.906V226.906H183.252V228.906H185.252ZM229.734 234.863L228.393 236.347L228.399 236.352L229.734 234.863ZM229.881 266.602L231.188 268.115L231.189 268.114L229.881 266.602ZM194.627 264.502H192.627V266.502H194.627V264.502ZM222.996 260.986L224.316 262.489L224.326 262.48L222.996 260.986ZM212.01 236.621L212.052 234.622L212.031 234.621H212.01V236.621ZM194.627 236.621V234.621H192.627V236.621H194.627ZM192.627 272.168V300H196.627V272.168H192.627ZM194.627 298H185.252V302H194.627V298ZM187.252 300V228.906H183.252V300H187.252ZM185.252 230.906H211.473V226.906H185.252V230.906ZM211.473 230.906C218.916 230.906 224.469 232.801 228.393 236.347L231.075 233.379C226.21 228.983 219.589 226.906 211.473 226.906V230.906ZM228.399 236.352C232.358 239.904 234.375 244.596 234.375 250.635H238.375C238.375 243.587 235.965 237.766 231.07 233.375L228.399 236.352ZM234.375 250.635C234.375 257.086 232.373 261.803 228.573 265.089L231.189 268.114C236.048 263.913 238.375 257.986 238.375 250.635H234.375ZM228.574 265.088C224.766 268.376 219.133 270.168 211.375 270.168V274.168C219.698 274.168 226.402 272.249 231.188 268.115L228.574 265.088ZM211.375 270.168H194.627V274.168H211.375V270.168ZM194.627 266.502H211.473V262.502H194.627V266.502ZM211.473 266.502C216.773 266.502 221.156 265.264 224.316 262.489L221.676 259.483C219.498 261.396 216.198 262.502 211.473 262.502V266.502ZM224.326 262.48C227.523 259.634 229 255.61 229 250.732H225C225 254.774 223.807 257.586 221.666 259.493L224.326 262.48ZM229 250.732C229 246.042 227.501 242.101 224.375 239.127L221.618 242.025C223.83 244.13 225 246.959 225 250.732H229ZM224.375 239.127C221.256 236.161 217.069 234.727 212.052 234.622L211.968 238.621C216.261 238.711 219.398 239.914 221.618 242.025L224.375 239.127ZM212.01 234.621H194.627V238.621H212.01V234.621ZM192.627 236.621V264.502H196.627V236.621H192.627ZM269.48 278.076L271.21 277.071L270.631 276.076H269.48V278.076ZM255.857 278.076V276.076H253.857V278.076H255.857ZM255.857 300V302H257.857V300H255.857ZM246.824 300H244.824V302H246.824V300ZM246.824 243.115V241.115H244.824V243.115H246.824ZM283.641 247.656L282.383 249.211L282.39 249.217L283.641 247.656ZM277.83 275.977L277.122 274.106L274.888 274.952L276.113 277.002L277.83 275.977ZM291.893 299.512H293.893V298.96L293.609 298.486L291.893 299.512ZM291.893 300V302H293.893V300H291.893ZM282.225 300L280.496 301.005L281.074 302H282.225V300ZM255.857 270.703H253.857V272.703H255.857V270.703ZM276.902 268.066L278.146 269.633L278.149 269.63L276.902 268.066ZM255.857 250.586V248.586H253.857V250.586H255.857ZM269.48 276.076H255.857V280.076H269.48V276.076ZM253.857 278.076V300H257.857V278.076H253.857ZM255.857 298H246.824V302H255.857V298ZM248.824 300V243.115H244.824V300H248.824ZM246.824 245.115H267.625V241.115H246.824V245.115ZM267.625 245.115C274.297 245.115 279.123 246.575 282.383 249.211L284.898 246.101C280.671 242.683 274.82 241.115 267.625 241.115V245.115ZM282.39 249.217C285.621 251.807 287.305 255.473 287.305 260.498H291.305C291.305 254.455 289.213 249.56 284.892 246.096L282.39 249.217ZM287.305 260.498C287.305 263.849 286.448 266.56 284.829 268.743C283.2 270.941 280.686 272.757 277.122 274.106L278.538 277.847C282.624 276.299 285.847 274.087 288.043 271.125C290.249 268.149 291.305 264.569 291.305 260.498H287.305ZM276.113 277.002L290.176 300.538L293.609 298.486L279.547 274.951L276.113 277.002ZM289.893 299.512V300H293.893V299.512H289.893ZM291.893 298H282.225V302H291.893V298ZM283.954 298.995L271.21 277.071L267.751 279.081L280.496 301.005L283.954 298.995ZM255.857 272.703H267.869V268.703H255.857V272.703ZM267.869 272.703C271.973 272.703 275.473 271.755 278.146 269.633L275.659 266.5C273.904 267.893 271.382 268.703 267.869 268.703V272.703ZM278.149 269.63C280.9 267.437 282.271 264.438 282.271 260.84H278.271C278.271 263.296 277.397 265.115 275.656 266.502L278.149 269.63ZM282.271 260.84C282.271 257.089 280.987 253.957 278.269 251.726L275.731 254.817C277.375 256.167 278.271 258.08 278.271 260.84H282.271ZM278.269 251.726C275.599 249.534 271.936 248.586 267.576 248.586V252.586C271.419 252.586 274.039 253.428 275.731 254.817L278.269 251.726ZM267.576 248.586H255.857V252.586H267.576V248.586ZM253.857 250.586V270.703H257.857V250.586H253.857ZM341.355 293.408L342.832 294.757L342.836 294.753L341.355 293.408ZM305.223 293.311L303.747 294.661L303.752 294.666L305.223 293.311ZM305.174 249.854L303.694 248.508L303.689 248.513L305.174 249.854ZM341.258 249.756L339.772 251.095L339.777 251.1L341.258 249.756ZM348.094 269.629H350.094V269.621L350.094 269.613L348.094 269.629ZM311.57 255.176L310.026 253.905L310.019 253.914L311.57 255.176ZM311.619 288.037L310.069 289.3L310.074 289.308L311.619 288.037ZM335.008 288.135L333.448 286.884L333.446 286.885L335.008 288.135ZM346.094 273.242C346.094 281.381 343.949 287.576 339.875 292.064L342.836 294.753C347.746 289.345 350.094 282.096 350.094 273.242H346.094ZM339.879 292.059C335.819 296.502 330.363 298.781 323.289 298.781V302.781C331.32 302.781 337.908 300.145 342.832 294.757L339.879 292.059ZM323.289 298.781C316.331 298.781 310.864 296.481 306.693 291.955L303.752 294.666C308.761 300.101 315.338 302.781 323.289 302.781V298.781ZM306.698 291.96C302.562 287.44 300.387 281.198 300.387 272.998H296.387C296.387 281.92 298.769 289.22 303.747 294.661L306.698 291.96ZM300.387 272.998V269.971H296.387V272.998H300.387ZM300.387 269.971C300.387 261.942 302.541 255.755 306.658 251.194L303.689 248.513C298.757 253.978 296.387 261.203 296.387 269.971H300.387ZM306.654 251.199C310.792 246.647 316.237 244.334 323.191 244.334V240.334C315.237 240.334 308.671 243.034 303.694 248.508L306.654 251.199ZM323.191 244.334C330.296 244.334 335.746 246.628 339.772 251.095L342.743 248.417C337.85 242.988 331.256 240.334 323.191 240.334V244.334ZM339.777 251.1C343.864 255.602 346.032 261.712 346.094 269.645L350.094 269.613C350.026 260.945 347.636 253.806 342.739 248.411L339.777 251.1ZM346.094 269.629V273.242H350.094V269.629H346.094ZM341.158 269.873C341.158 263.172 339.707 257.718 336.506 253.811L333.412 256.345C335.81 259.274 337.158 263.684 337.158 269.873H341.158ZM336.506 253.811C333.27 249.86 328.741 247.951 323.191 247.951V251.951C327.733 251.951 331.049 253.46 333.412 256.345L336.506 253.811ZM323.191 247.951C317.767 247.951 313.305 249.918 310.026 253.905L313.115 256.446C315.565 253.467 318.85 251.951 323.191 251.951V247.951ZM310.019 253.914C306.795 257.879 305.322 263.34 305.322 270.02H309.322C309.322 263.874 310.682 259.439 313.122 256.438L310.019 253.914ZM305.322 270.02V273.242H309.322V270.02H305.322ZM305.322 273.242C305.322 279.869 306.816 285.309 310.069 289.3L313.17 286.774C310.693 283.734 309.322 279.311 309.322 273.242H305.322ZM310.074 289.308C313.356 293.298 317.837 295.262 323.289 295.262V291.262C318.911 291.262 315.611 289.743 313.164 286.767L310.074 289.308ZM323.289 295.262C328.865 295.262 333.392 293.356 336.57 289.384L333.446 286.885C331.155 289.75 327.869 291.262 323.289 291.262V295.262ZM336.568 289.386C339.726 285.448 341.158 279.971 341.158 273.242H337.158C337.158 279.47 335.824 283.92 333.448 286.884L336.568 289.386ZM341.158 273.242V269.873H337.158V273.242H341.158ZM378.514 273.486V275.486H380.514V273.486H378.514ZM354.686 273.486H352.686V275.486H354.686V273.486ZM354.686 266.113V264.113H352.686V266.113H354.686ZM378.514 266.113H380.514V264.113H378.514V266.113ZM378.514 271.486H354.686V275.486H378.514V271.486ZM356.686 273.486V266.113H352.686V273.486H356.686ZM354.686 268.113H378.514V264.113H354.686V268.113ZM376.514 266.113V273.486H380.514V266.113H376.514ZM233.348 350H231.348V352H233.348V350ZM233.348 293.115V291.115H231.348V293.115H233.348ZM264.988 296.387L264.043 298.149L264.052 298.154L264.06 298.158L264.988 296.387ZM274.559 305.615L272.82 306.604L274.559 305.615ZM278.123 319.385H280.123V319.366L280.123 319.347L278.123 319.385ZM270.506 342.725L269.124 341.278L269.12 341.283L270.506 342.725ZM242.381 300.586V298.586H240.381V300.586H242.381ZM242.381 342.627H240.381V344.627H242.381V342.627ZM264.305 337.549L262.856 336.17L264.305 337.549ZM264.5 305.615L263.023 306.963L263.03 306.971L263.036 306.978L264.5 305.615ZM235.348 350V293.115H231.348V350H235.348ZM233.348 295.115H250.975V291.115H233.348V295.115ZM250.975 295.115C255.966 295.115 260.304 296.145 264.043 298.149L265.933 294.624C261.534 292.266 256.53 291.115 250.975 291.115V295.115ZM264.06 298.158C267.824 300.13 270.732 302.935 272.82 306.604L276.297 304.626C273.828 300.287 270.355 296.94 265.916 294.615L264.06 298.158ZM272.82 306.604C274.914 310.284 276.031 314.539 276.123 319.422L280.123 319.347C280.02 313.879 278.76 308.955 276.297 304.626L272.82 306.604ZM276.123 319.385V323.145H280.123V319.385H276.123ZM276.123 323.145C276.123 330.901 273.741 336.869 269.124 341.278L271.887 344.171C277.427 338.879 280.123 331.794 280.123 323.145H276.123ZM269.12 341.283C264.526 345.698 258.262 348 250.096 348V352C259.052 352 266.394 349.451 271.892 344.166L269.12 341.283ZM250.096 348H233.348V352H250.096V348ZM240.381 300.586V342.627H244.381V300.586H240.381ZM242.381 344.627H250.389V340.627H242.381V344.627ZM250.389 344.627C256.821 344.627 262.05 342.818 265.753 338.928L262.856 336.17C260.114 339.05 256.066 340.627 250.389 340.627V344.627ZM265.753 338.928C269.436 335.059 271.139 329.682 271.139 323.096H267.139C267.139 329.01 265.619 333.267 262.856 336.17L265.753 338.928ZM271.139 323.096V319.971H267.139V323.096H271.139ZM271.139 319.971C271.139 313.408 269.513 308.063 265.964 304.252L263.036 306.978C265.672 309.808 267.139 314.034 267.139 319.971H271.139ZM265.977 304.267C262.429 300.38 257.309 298.586 250.975 298.586V302.586C256.555 302.586 260.451 304.145 263.023 306.963L265.977 304.267ZM250.975 298.586H242.381V302.586H250.975V298.586ZM333.348 293.115H335.348V291.115H333.348V293.115ZM327.244 345.459L328.559 346.966L328.565 346.96L327.244 345.459ZM294.676 345.654L293.37 347.169L293.377 347.175L294.676 345.654ZM288.523 331.592H286.523V331.608L286.524 331.625L288.523 331.592ZM288.523 293.115V291.115H286.523V293.115H288.523ZM297.459 293.115H299.459V291.115H297.459V293.115ZM300.926 340.283L299.575 341.758L299.586 341.768L299.597 341.778L300.926 340.283ZM320.799 340.332L322.126 341.828L322.128 341.827L320.799 340.332ZM324.314 293.115V291.115H322.314V293.115H324.314ZM331.348 293.115V331.201H335.348V293.115H331.348ZM331.348 331.201C331.348 336.611 329.517 340.795 325.923 343.958L328.565 346.96C333.109 342.962 335.348 337.64 335.348 331.201H331.348ZM325.93 343.952C322.312 347.106 317.385 348.781 310.936 348.781V352.781C318.092 352.781 324.038 350.908 328.559 346.966L325.93 343.952ZM310.936 348.781C304.431 348.781 299.519 347.16 295.974 344.133L293.377 347.175C297.84 350.985 303.768 352.781 310.936 352.781V348.781ZM295.981 344.139C292.465 341.109 290.613 336.99 290.523 331.559L286.524 331.625C286.63 338.043 288.879 343.299 293.37 347.169L295.981 344.139ZM290.523 331.592V293.115H286.523V331.592H290.523ZM288.523 295.115H297.459V291.115H288.523V295.115ZM295.459 293.115V331.201H299.459V293.115H295.459ZM295.459 331.201C295.459 335.547 296.749 339.171 299.575 341.758L302.276 338.808C300.48 337.164 299.459 334.733 299.459 331.201H295.459ZM299.597 341.778C302.426 344.293 306.303 345.408 310.936 345.408V341.408C306.909 341.408 304.113 340.44 302.255 338.788L299.597 341.778ZM310.936 345.408C315.503 345.408 319.33 344.309 322.126 341.828L319.471 338.836C317.645 340.457 314.897 341.408 310.936 341.408V345.408ZM322.128 341.827C325.01 339.265 326.314 335.607 326.314 331.201H322.314C322.314 334.803 321.275 337.233 319.47 338.837L322.128 341.827ZM326.314 331.201V293.115H322.314V331.201H326.314ZM324.314 295.115H333.348V291.115H324.314V295.115ZM391.258 331.592L393.246 331.804L393.483 329.592H391.258V331.592ZM350.193 343.604L348.716 344.951L348.725 344.962L350.193 343.604ZM346.58 305.078L344.788 304.189L344.785 304.195L346.58 305.078ZM355.223 295.654L354.211 293.929L354.205 293.933L355.223 295.654ZM384.275 297.51L382.97 299.025L382.976 299.03L382.983 299.036L384.275 297.51ZM391.258 311.768V313.768H393.471L393.248 311.565L391.258 311.768ZM382.225 311.768L380.244 312.042L380.482 313.768H382.225V311.768ZM377.879 302.588L376.603 304.128L376.614 304.137L377.879 302.588ZM356.736 304.736L355.192 303.465L355.191 303.467L356.736 304.736ZM352.635 318.896L350.635 318.886V318.896H352.635ZM356.492 338.379L354.9 339.589L354.906 339.597L354.913 339.606L356.492 338.379ZM377.781 340.723L379.017 342.295L379.02 342.293L377.781 340.723ZM382.225 331.592V329.592H380.507L380.248 331.29L382.225 331.592ZM389.269 331.379C388.665 337.031 386.494 341.236 382.863 344.203L385.395 347.3C389.967 343.563 392.549 338.327 393.246 331.804L389.269 331.379ZM382.863 344.203C379.21 347.19 374.247 348.781 367.771 348.781V352.781C374.903 352.781 380.845 351.02 385.395 347.3L382.863 344.203ZM367.771 348.781C360.964 348.781 355.663 346.571 351.661 342.245L348.725 344.962C353.578 350.207 359.996 352.781 367.771 352.781V348.781ZM351.671 342.256C347.702 337.904 345.602 331.813 345.602 323.73H341.602C341.602 332.51 343.896 339.667 348.716 344.951L351.671 342.256ZM345.602 323.73V319.141H341.602V323.73H345.602ZM345.602 319.141C345.602 314.051 346.547 309.676 348.375 305.961L344.785 304.195C342.642 308.553 341.602 313.553 341.602 319.141H345.602ZM348.372 305.967C350.226 302.228 352.845 299.383 356.241 297.376L354.205 293.933C350.113 296.352 346.97 299.79 344.788 304.189L348.372 305.967ZM356.234 297.38C359.665 295.368 363.669 294.334 368.309 294.334V290.334C363.052 290.334 358.332 291.513 354.211 293.929L356.234 297.38ZM368.309 294.334C374.597 294.334 379.415 295.961 382.97 299.025L385.581 295.995C381.128 292.157 375.302 290.334 368.309 290.334V294.334ZM382.983 299.036C386.562 302.067 388.693 306.311 389.268 311.97L393.248 311.565C392.586 305.05 390.061 299.788 385.568 295.983L382.983 299.036ZM391.258 309.768H382.225V313.768H391.258V309.768ZM384.206 311.493C383.58 306.976 381.987 303.361 379.144 301.039L376.614 304.137C378.393 305.591 379.697 308.095 380.244 312.042L384.206 311.493ZM379.155 301.048C376.401 298.766 372.698 297.756 368.309 297.756V301.756C372.123 301.756 374.8 302.634 376.603 304.128L379.155 301.048ZM368.309 297.756C362.836 297.756 358.369 299.608 355.192 303.465L358.28 306.008C360.572 303.224 363.82 301.756 368.309 301.756V297.756ZM355.191 303.467C352.092 307.238 350.669 312.473 350.635 318.886L354.635 318.907C354.666 313.015 355.977 308.81 358.282 306.006L355.191 303.467ZM350.635 318.896V324.072H354.635V318.896H350.635ZM350.635 324.072C350.635 330.473 351.969 335.73 354.9 339.589L358.085 337.169C355.872 334.257 354.635 329.976 354.635 324.072H350.635ZM354.913 339.606C357.958 343.527 362.349 345.408 367.771 345.408V341.408C363.364 341.408 360.234 339.936 358.072 337.152L354.913 339.606ZM367.771 345.408C372.394 345.408 376.245 344.473 379.017 342.295L376.546 339.15C374.76 340.553 371.938 341.408 367.771 341.408V345.408ZM379.02 342.293C381.88 340.037 383.509 336.429 384.202 331.894L380.248 331.29C379.638 335.283 378.304 337.763 376.543 339.152L379.02 342.293ZM382.225 333.592H391.258V329.592H382.225V333.592ZM444.822 300.586V302.586H446.822V300.586H444.822ZM425.34 300.586V298.586H423.34V300.586H425.34ZM425.34 350V352H427.34V350H425.34ZM416.307 350H414.307V352H416.307V350ZM416.307 300.586H418.307V298.586H416.307V300.586ZM396.922 300.586H394.922V302.586H396.922V300.586ZM396.922 293.115V291.115H394.922V293.115H396.922ZM444.822 293.115H446.822V291.115H444.822V293.115ZM444.822 298.586H425.34V302.586H444.822V298.586ZM423.34 300.586V350H427.34V300.586H423.34ZM425.34 348H416.307V352H425.34V348ZM418.307 350V300.586H414.307V350H418.307ZM416.307 298.586H396.922V302.586H416.307V298.586ZM398.922 300.586V293.115H394.922V300.586H398.922ZM396.922 295.115H444.822V291.115H396.922V295.115ZM442.822 293.115V300.586H446.822V293.115H442.822Z" fill="url(#paint0_diamond)" fill-opacity="0.56"/>
<defs>
<radialGradient id="paint0_diamond" cx="0" cy="0" r="1" gradientUnits="userSpaceOnUse" gradientTransform="translate(300.5 290.5) rotate(90) scale(125.5 173.5)">
<stop offset="0.338542"/>
<stop offset="0.729167" stop-opacity="0"/>
</radialGradient>
</defs>
</svg>
