<svg width="500" height="500" viewBox="0 0 500 500" fill="none" xmlns="http://www.w3.org/2000/svg">
<g clip-path="url(#clip0)">
<circle cx="250" cy="250" r="250" fill="black"/>
<path d="M135.021 244.102C136.649 250.938 137.463 259.645 137.463 270.225V382.529C137.463 390.342 135.835 396.364 132.58 400.596C128.674 405.153 123.71 409.141 117.688 412.559C111.665 415.814 107.434 417.441 104.992 417.441C99.2956 417.441 96.4473 413.942 96.4473 406.943V175.742C96.4473 173.789 96.9355 172.243 97.9121 171.104C98.8887 169.801 100.109 169.15 101.574 169.15C104.016 169.15 106.457 171.592 108.898 176.475C111.503 181.357 116.06 191.774 122.57 207.725C129.406 224.814 133.557 236.94 135.021 244.102ZM195.08 355.186L97.9121 102.5C96.61 99.4076 95.959 96.3965 95.959 93.4668C95.959 89.5605 97.5052 85.8984 100.598 82.4805C104.341 77.9232 109.305 74.3424 115.49 71.7383C121.675 68.9714 126.477 67.5879 129.895 67.5879C133.475 67.5879 136.242 68.4017 138.195 70.0293C140.311 71.6569 142.264 74.668 144.055 79.0625L226.574 300.986C229.504 308.962 230.969 315.472 230.969 320.518C230.969 324.587 229.992 329.469 228.039 335.166C224.133 345.094 220.308 352.907 216.564 358.604C213.146 363.975 209.484 366.66 205.578 366.66C203.625 366.66 201.835 365.846 200.207 364.219C198.579 362.591 196.87 359.58 195.08 355.186ZM325.451 240.928L274.426 373.496C269.055 386.842 260.591 397.503 249.035 405.479C237.805 413.454 229.097 417.441 222.912 417.441C218.029 417.441 215.588 415.163 215.588 410.605C215.588 408.652 216.402 405.804 218.029 402.061L317.883 137.412C320.812 131.39 323.173 127.972 324.963 127.158C325.939 126.67 326.916 126.426 327.893 126.426C331.636 126.426 333.996 129.6 334.973 135.947C335.949 141.644 336.438 154.827 336.438 175.498C336.438 188.356 335.705 199.668 334.24 209.434C332.938 219.036 330.008 229.535 325.451 240.928ZM400.158 78.0859V381.064C400.158 389.04 398.531 394.98 395.275 398.887C391.206 403.77 385.347 408.083 377.697 411.826C370.21 415.57 364.107 417.441 359.387 417.441C353.853 417.441 351.086 413.942 351.086 406.943V103.965C351.086 97.1289 352.714 91.6764 355.969 87.6074C360.201 82.5618 366.06 78.0046 373.547 73.9355C381.034 69.7038 387.056 67.5879 391.613 67.5879C397.31 67.5879 400.158 71.0872 400.158 78.0859Z" fill="#F9FD05"/>
</g>
<defs>
<clipPath id="clip0">
<rect width="500" height="500" fill="white"/>
</clipPath>
</defs>
</svg>
