<svg width="2500" height="1400" viewBox="0 0 2500 1400" fill="none" xmlns="http://www.w3.org/2000/svg">
<path d="M1250 1280C1570.33 1280 1830 1020.33 1830 700C1830 379.675 1570.33 120 1250 120C929.675 120 670 379.675 670 700C670 1020.33 929.675 1280 1250 1280Z" stroke="url(#paint0_linear)" stroke-width="50"/>
<path d="M1510 545H990C978.954 545 970 553.954 970 565V885C970 896.046 978.954 905 990 905H1510C1521.05 905 1530 896.046 1530 885V565C1530 553.954 1521.05 545 1510 545Z" stroke="url(#paint1_linear)" stroke-width="50"/>
<path d="M1243.5 750L1024 570H1463L1243.5 750Z" stroke="url(#paint2_linear)" stroke-width="50"/>
<path d="M1528.81 889.667L1334.35 695.213C1330.45 691.308 1324.11 691.308 1320.21 695.213C1316.3 699.118 1316.3 705.45 1320.21 709.355L1514.66 903.81C1518.57 907.715 1524.9 907.715 1528.81 903.81C1532.71 899.904 1532.71 893.573 1528.81 889.667Z" stroke="url(#paint3_linear)" stroke-width="40"/>
<path d="M1159.38 701.106L970.993 889.494C967.209 893.278 967.308 899.511 971.213 903.416C975.118 907.321 981.351 907.42 985.135 903.637L1173.52 715.248C1177.31 711.464 1177.21 705.231 1173.3 701.326C1169.4 697.421 1163.16 697.322 1159.38 701.106Z" stroke="url(#paint4_linear)" stroke-width="40"/>
<defs>
<linearGradient id="paint0_linear" x1="1250" y1="120" x2="1250" y2="1280" gradientUnits="userSpaceOnUse">
<stop offset="0.00520833" stop-color="#FAFF00"/>
<stop offset="0.869792" stop-color="#FAFF00" stop-opacity="0.957576"/>
<stop offset="0.9375" stop-color="#FAFF00" stop-opacity="0"/>
<stop offset="1" stop-color="#FAFF00" stop-opacity="0.878811"/>
</linearGradient>
<linearGradient id="paint1_linear" x1="1250" y1="545" x2="1250" y2="905" gradientUnits="userSpaceOnUse">
<stop offset="0.00520833" stop-color="#FAFF00"/>
<stop offset="0.869792" stop-color="#FAFF00" stop-opacity="0.957576"/>
<stop offset="0.9375" stop-color="#FAFF00" stop-opacity="0"/>
<stop offset="1" stop-color="#FAFF00" stop-opacity="0.878811"/>
</linearGradient>
<linearGradient id="paint2_linear" x1="1243.5" y1="570" x2="1243.5" y2="750" gradientUnits="userSpaceOnUse">
<stop offset="0.00520833" stop-color="#FAFF00"/>
<stop offset="0.869792" stop-color="#FAFF00" stop-opacity="0.957576"/>
<stop offset="0.9375" stop-color="#FAFF00" stop-opacity="0"/>
<stop offset="1" stop-color="#FAFF00" stop-opacity="0.878811"/>
</linearGradient>
<linearGradient id="paint3_linear" x1="1431.58" y1="792.44" x2="1417.44" y2="806.582" gradientUnits="userSpaceOnUse">
<stop offset="0.00520833" stop-color="#FAFF00"/>
<stop offset="0.869792" stop-color="#FAFF00" stop-opacity="0.957576"/>
<stop offset="0.9375" stop-color="#FAFF00" stop-opacity="0"/>
<stop offset="1" stop-color="#FAFF00" stop-opacity="0.878811"/>
</linearGradient>
<linearGradient id="paint4_linear" x1="1065.19" y1="795.3" x2="1079.33" y2="809.442" gradientUnits="userSpaceOnUse">
<stop offset="0.00520833" stop-color="#FAFF00"/>
<stop offset="0.869792" stop-color="#FAFF00" stop-opacity="0.957576"/>
<stop offset="0.9375" stop-color="#FAFF00" stop-opacity="0"/>
<stop offset="1" stop-color="#FAFF00" stop-opacity="0.878811"/>
</linearGradient>
</defs>
</svg>
