<svg width="2500" height="1400" viewBox="0 0 2500 1400" fill="none" xmlns="http://www.w3.org/2000/svg">
<path d="M1250 1275C1567.56 1275 1825 1017.56 1825 700C1825 382.436 1567.56 125 1250 125C932.436 125 675 382.436 675 700C675 1017.56 932.436 1275 1250 1275Z" stroke="url(#paint0_diamond)" stroke-width="50"/>
<path d="M1500 700C1500 873.194 1381.12 1000 1250 1000C1118.88 1000 1000 873.194 1000 700C1000 526.806 1118.88 400 1250 400C1381.12 400 1500 526.806 1500 700Z" stroke="url(#paint1_diamond)" stroke-width="100"/>
<path d="M1333.11 851.585L1516.95 1021" stroke="#FAFF00" stroke-width="80"/>
<defs>
<radialGradient id="paint0_diamond" cx="0" cy="0" r="1" gradientUnits="userSpaceOnUse" gradientTransform="translate(1250 700) rotate(90) scale(575)">
<stop stop-color="#FAFF00"/>
<stop offset="0.0001" stop-color="#FAFF00" stop-opacity="0.0253165"/>
<stop offset="0.822917" stop-color="#FAFF00" stop-opacity="0"/>
<stop offset="0.9999" stop-color="#FAFF00" stop-opacity="0.018166"/>
<stop offset="1" stop-color="#FAFF00" stop-opacity="0.920635"/>
</radialGradient>
<radialGradient id="paint1_diamond" cx="0" cy="0" r="1" gradientUnits="userSpaceOnUse" gradientTransform="translate(1250 700) rotate(90) scale(300 250)">
<stop stop-color="#FAFF00"/>
<stop offset="0.0001" stop-color="#FAFF00" stop-opacity="0.0253165"/>
<stop offset="0.822917" stop-color="#FAFF00" stop-opacity="0"/>
<stop offset="0.9999" stop-color="#FAFF00" stop-opacity="0.018166"/>
<stop offset="1" stop-color="#FAFF00" stop-opacity="0.920635"/>
</radialGradient>
</defs>
</svg>
