<svg width="1366" height="768" viewBox="0 0 1366 768" fill="none" xmlns="http://www.w3.org/2000/svg">
<g clip-path="url(#clip0)">
<rect width="1366" height="768" fill="black" fill-opacity="0.88"/>
<line x1="1366.64" y1="0.770742" x2="1141.64" y2="186.771" stroke="white" stroke-opacity="0.44" stroke-width="2"/>
<line x1="1365.5" y1="314.866" x2="820.501" y2="0.866484" stroke="white" stroke-opacity="0.44" stroke-width="2"/>
<line x1="1009.74" y1="202.67" x2="767.742" y2="470.67" stroke="white" stroke-opacity="0.44" stroke-width="2"/>
<line x1="1294.43" y1="502.82" x2="956.427" y2="266.82" stroke="white" stroke-opacity="0.44" stroke-width="2"/>
<line x1="541.299" y1="94.9543" x2="91.299" y2="235.954" stroke="white" stroke-opacity="0.44" stroke-width="2"/>
<line x1="183.932" y1="0.362829" x2="0.931858" y2="470.363" stroke="white" stroke-opacity="0.44" stroke-width="2"/>
<line x1="18.8276" y1="607.015" x2="498.828" y2="523.015" stroke="white" stroke-opacity="0.44" stroke-width="2"/>
<line x1="316.696" y1="345.282" x2="669.696" y2="687.282" stroke="white" stroke-opacity="0.44" stroke-width="2"/>
<line x1="579.47" y1="402.117" x2="1103.47" y2="681.117" stroke="white" stroke-opacity="0.44" stroke-width="2"/>
<line x1="1366.24" y1="672.971" x2="975.238" y2="768.971" stroke="white" stroke-opacity="0.44" stroke-width="2"/>
<line x1="0.428893" y1="607.097" x2="337.429" y2="767.097" stroke="white" stroke-opacity="0.44" stroke-width="2"/>
<line x1="578.374" y1="767.22" x2="858.374" y2="542.221" stroke="white" stroke-opacity="0.44" stroke-width="2"/>
<line x1="445.694" y1="-0.719651" x2="843.694" y2="383.28" stroke="white" stroke-opacity="0.44" stroke-width="2"/>
<line x1="91.3284" y1="234.055" x2="767.328" y2="469.055" stroke="white" stroke-opacity="0.44" stroke-width="2"/>
</g>
<defs>
<clipPath id="clip0">
<rect width="1366" height="768" fill="white"/>
</clipPath>
</defs>
</svg>
